<mxfile host="app.diagrams.net" modified="2024-05-13T05:24:37.426Z" agent="Mozilla/5.0 (X11; Linux x86_64) AppleWebKit/537.36 (KHTML, like Gecko) Chrome/124.0.0.0 Safari/537.36" version="24.4.0" etag="9mge_cjwhKWHHISC0jFI" type="github">
  <diagram name="Страница — 1" id="mWnx9qg3UkZB8piaHBsi">
    <mxGraphModel>
      <root>
        <mxCell id="0" />
        <mxCell id="1" parent="0" />
      </root>
    </mxGraphModel>
  </diagram>
</mxfile>
